<svg width="28" height="28" viewBox="0 0 28 28" fill="none" xmlns="http://www.w3.org/2000/svg">
<path d="M17.5 24.5V15.1667C17.5 14.8572 17.3771 14.5605 17.1583 14.3417C16.9395 14.1229 16.6428 14 16.3333 14H11.6667C11.3572 14 11.0605 14.1229 10.8417 14.3417C10.6229 14.5605 10.5 14.8572 10.5 15.1667V24.5" stroke="#3A0E1F" stroke-width="2.33333" stroke-linecap="round" stroke-linejoin="round"/>
<path d="M3.5 11.6659C3.49992 11.3265 3.57389 10.9912 3.71675 10.6833C3.85962 10.3754 4.06793 10.1024 4.32717 9.88326L12.4938 2.88326C12.915 2.52732 13.4486 2.33203 14 2.33203C14.5514 2.33203 15.085 2.52732 15.5062 2.88326L23.6728 9.88326C23.9321 10.1024 24.1404 10.3754 24.2832 10.6833C24.4261 10.9912 24.5001 11.3265 24.5 11.6659V22.1659C24.5 22.7848 24.2542 23.3783 23.8166 23.8158C23.379 24.2534 22.7855 24.4993 22.1667 24.4993H5.83333C5.21449 24.4993 4.621 24.2534 4.18342 23.8158C3.74583 23.3783 3.5 22.7848 3.5 22.1659V11.6659Z" stroke="#3A0E1F" stroke-width="2.33333" stroke-linecap="round" stroke-linejoin="round"/>
</svg>
